# xmcd
#
# Track frame offsets: 
#        150
#        10663
#        24962
#        38274
#        48866
#        61913
#        74165
#        87931
#        100908
#        112699
#        124529
#        138134
#        147219
#        156721
#        168601
#        182357
#        193066
#        205059
#        216733
#        226050
#        237246
#        249220
#        263513
#        274200
#        284745
#        303586
#
# Disc length: 4202 seconds
#
# Revision: 0
# Processed by: cddbd v1.5.2PL0 Copyright (c) Steve Scherf et al.
# Submitted via: ExactAudioCopy v1.0b1
#
DISCID=6a10681a
DTITLE=Slim Whitman - The Very Best Of Slim Whitman
DYEAR=1900
DGENRE=Country
TTITLE0=Rose Marie
TTITLE1=Indian Love Call
TTITLE2=I'll Take You Home Again, Kathleen
TTITLE3=Serenade
TTITLE4=China Doll
TTITLE5=I'm A Fool
TTITLE6=Tumbling Tumbleweeds
TTITLE7=Cool Water
TTITLE8=We Three (My Echo, My Shadow And Me)
TTITLE9=Love Song Of The Waterfall
TTITLE10=Unchained Melody
TTITLE11=When My Dreamboat Comes Home
TTITLE12=The Old Spinning Wheel (Live)
TTITLE13=When I Grow Too Old To Dream
TTITLE14=All Kinds Of Everything
TTITLE15=Rhinestone Cowboy
TTITLE16=Secret Love
TTITLE17=Together
TTITLE18=It's A Small World
TTITLE19=Annie Laurie
TTITLE20=Blue Eyes Crying In The Rain
TTITLE21=Red River Valley
TTITLE22=The Old Lamplighter
TTITLE23=It's All In the Game
TTITLE24=Home On The Range
TTITLE25=Happy Anniversary
EXTD=
EXTT0=
EXTT1=
EXTT2=
EXTT3=
EXTT4=
EXTT5=
EXTT6=
EXTT7=
EXTT8=
EXTT9=
EXTT10=
EXTT11=
EXTT12=
EXTT13=
EXTT14=
EXTT15=
EXTT16=
EXTT17=
EXTT18=
EXTT19=
EXTT20=
EXTT21=
EXTT22=
EXTT23=
EXTT24=
EXTT25=
PLAYORDER=
